<svg width="17" height="17" viewBox="0 0 17 17" fill="none" xmlns="http://www.w3.org/2000/svg">
<path d="M1.89245 12.3778L1.8923 12.378C1.68621 12.7135 1.5835 13.0766 1.5835 13.4833V14.25C1.5835 14.5764 1.69105 14.8375 1.92733 15.0738C2.16269 15.3092 2.42338 15.4167 2.75016 15.4167H14.2502C14.5768 15.4167 14.8379 15.3093 15.074 15.0738C15.3094 14.8378 15.4168 14.5766 15.4168 14.25V13.4833C15.4168 13.0766 15.3141 12.7135 15.108 12.378L15.1079 12.3778C14.8992 12.0379 14.6301 11.7873 14.2932 11.6121C13.3524 11.1422 12.4008 10.7916 11.438 10.5581C10.4738 10.3249 9.49492 10.2083 8.50016 10.2083C7.5054 10.2083 6.52654 10.3249 5.56233 10.5581L1.89245 12.3778ZM1.89245 12.3778C2.10108 12.0379 2.37019 11.7874 2.7071 11.6122M1.89245 12.3778L2.7071 11.6122M2.7071 11.6122C3.64777 11.1422 4.59919 10.7917 5.5619 10.5582L2.7071 11.6122ZM8.50016 7.75001C7.64649 7.75001 6.93437 7.4548 6.3232 6.84364C5.71204 6.23247 5.41683 5.52035 5.41683 4.66668C5.41683 3.813 5.71204 3.10088 6.3232 2.48972C6.93437 1.87855 7.64649 1.58334 8.50016 1.58334C9.35384 1.58334 10.066 1.87855 10.6771 2.48972C11.2883 3.10088 11.5835 3.813 11.5835 4.66668C11.5835 5.52035 11.2883 6.23247 10.6771 6.84364C10.066 7.4548 9.35384 7.75001 8.50016 7.75001Z" stroke="#1A1E2E" stroke-width="1.5"/>
</svg>
